<?xml version="1.0" encoding="UTF-8"?><svg id="_레이어_2" xmlns="http://www.w3.org/2000/svg" viewBox="0 0 577.26 172"><defs><style>.cls-1{fill:#00a1e9;stroke-width:0px;}</style></defs><g id="_레이어_1-2"><path class="cls-1" d="m187.27,89.99v3.64h-1.82v3.65h-1.82v1.82h-3.64v1.82H0v1.82h3.64v1.82h3.64v1.82h1.82v3.64h1.82v3.65h1.82v-9.11h-1.82v-1.82h70.91v1.82h3.64v1.82h1.82v3.64h1.82v52.85h-1.82v3.65h-1.82v1.82h-3.64v1.82h-5.45v1.82h36.36v-1.82h-14.54v-1.82h1.82v-63.79h-1.82v-1.82h90.91v-1.82h-1.82v-1.82h1.82v-9.11h-1.82Z"/><path class="cls-1" d="m30.99,75.32h3.65v1.79h1.83v3.59h1.83v3.59h1.83v-8.97h-1.83v-1.79h122.32v-1.79h-1.82v-1.79h1.82v-8.97h-1.82v3.59h-1.83v3.59h-1.82v1.79h-3.65v1.79h-25.56v-1.79h1.83V14.35h-1.83v-1.79h34.69v-1.79h-1.82v-1.79h1.82V0h-1.82v3.59h-1.83v3.59h-1.82v1.79h-3.65v1.79H27.34v1.79h3.65v1.79h3.65v1.79h1.83v1.79h1.83v5.38h1.83v-8.97h-1.83v-1.79h16.43v1.79h3.65v1.79h1.83v3.59h1.83v44.84h-1.83v3.59h-1.83v1.79h-3.65v1.79h-27.38v1.79h3.65v1.79Zm41.99-59.18v-1.79h-1.83v-1.79h38.34v1.79h3.65v1.79h1.83v3.59h1.83v44.84h-1.83v3.59h-1.83v1.79h-3.65v1.79h-38.34v-1.79h1.83V16.14Z"/><path class="cls-1" d="m395.48,89.99v3.61h-1.81v3.61h-1.81v1.81h-3.61v1.81h-178.91v1.81h3.61v1.81h3.62v1.81h1.81v3.61h1.81v3.61h1.81v-9.03h-1.81v-1.81h16.26v1.81h3.61v1.81h1.81v3.61h1.81v46.95h1.81v1.81h3.61v1.81h1.81v1.81h3.61v1.81h113.85v-1.81h-1.81v-1.81h1.81v-9.03h-1.81v3.61h-1.81v3.61h-1.81v1.81h-3.61v1.81h-93.97v-1.81h-5.42v-1.81h-3.61v-1.81h-1.81v-52.37h-1.81v-1.81h144.57v-1.81h-1.81v-1.81h1.81v-9.03h-1.81Z"/><path class="cls-1" d="m360.83,70.39v-9.11h-1.82v3.65h-1.82v3.64h-1.82v1.82h-3.64v1.82h-69.12v-1.82h-5.46v-1.82h-3.64v-1.82h-1.82v-20.05h-1.82v-1.82h89.12v-1.82h-12.73v-1.82h1.82v-23.69h-1.82v-1.82h-1.82v-1.82h-3.64v-1.82h-3.64v-1.82h-89.12v1.82h3.64v1.82h3.64v1.82h1.82v1.82h1.82v5.47h1.82v-9.11h-1.82v-1.82h67.3v1.82h5.46v1.82h3.64v1.82h1.82v18.23h-1.82v3.65h-1.82v1.82h-5.46v1.82h-80.03v1.82h5.46v1.82h3.64v1.82h1.82v3.65h1.82v14.58h1.82v1.82h1.82v1.82h3.64v1.82h3.64v1.82h89.12v-1.82h-1.82v-1.82h1.82Z"/><path class="cls-1" d="m577.26,2.97v-1.83h-36.45v1.83h5.47v1.83h3.65v1.83h1.82v3.66h1.82v84.21h-1.82v3.66h-1.82v1.83h-3.65v1.83h-5.47v1.83h36.45v-1.83h-14.58v-1.83h1.82V4.8h-1.82v-1.83h14.58Z"/><path class="cls-1" d="m418.35,76.66h39.65v-1.84h5.41v-1.84h3.6v-1.84h1.8v-1.84h1.8v-1.84h1.8v-1.84h1.8v-3.68h1.8v-3.68h1.8v5.53h1.8v3.68h1.8v1.84h1.8v1.84h1.8v1.84h3.6v1.84h3.61v1.84h36.04v-1.84h-1.8v-1.84h1.8v-9.21h-1.8v3.68h-1.8v3.68h-1.8v1.84h-3.6v1.84h-25.23v-1.84h-3.61v-1.84h-3.6v-1.84h-1.8v-1.84h-1.8v-1.84h-1.8v-3.68h-1.8v-11.05h1.8V15.87h-1.8v-1.84h48.66v-1.84h-1.8v-1.84h1.8V1.14h-1.8v3.68h-1.8v3.68h-1.8v1.84h-3.6v1.84h-111.73v1.84h3.6v1.84h3.61v1.84h1.8v1.84h1.8v5.53h1.8v-9.21h-1.8v-1.84h45.05v1.84h3.6v1.84h1.8v3.68h1.8v31.31h-1.8v5.53h-1.8v3.68h-1.8v3.68h-1.8v3.68h-1.8v1.84h-1.8v1.84h-3.6v1.84h-48.66v1.84h3.6v1.84h3.61v1.84h1.8v3.68h1.8v3.68h1.8v-9.21h-1.8v-1.84Z"/><path class="cls-1" d="m559.06,115.86h-18.2v1.81h5.46v1.81h3.64v1.81h1.82v3.62h1.82v16.3h-92.8v-36.22h-1.82v-1.81h14.56v-1.81h-36.39v1.81h5.46v1.81h3.64v1.81h1.82v3.62h1.82v54.33h1.82v1.81h1.82v1.81h3.64v1.81h3.64v1.81h116.45v-1.81h-14.56v-1.81h1.82v-48.89h-1.82v-1.81h14.56v-1.81h-18.2Zm-7.28,47.08v3.62h-1.82v1.81h-3.64v1.81h-74.6v-1.81h-5.46v-1.81h-3.64v-1.81h-1.82v-21.73h92.8v19.92h-1.82Z"/></g></svg>