<svg width="1586" height="836" viewBox="0 0 1586 836" fill="none" xmlns="http://www.w3.org/2000/svg">
<g clip-path="url(#clip0_365_52)">
<path d="M560.379 572.105V567.347L556.979 570.676C463.166 662.57 362.768 729.487 275.927 763.429C232.503 780.401 192.561 789.092 158.578 788.603C124.609 788.114 96.7295 778.462 77.1607 758.892C57.2917 739.022 47.6354 710.589 47.4064 675.917C47.1774 641.233 56.391 600.451 74.1051 556.166C109.531 467.602 178.803 365.399 273.565 270.633C368.355 175.839 470.569 106.549 559.129 71.1151C603.412 53.3968 644.189 44.1811 678.864 44.4093C713.527 44.6374 741.949 54.2941 761.803 74.1634L761.804 74.1639C781.659 94.0197 791.315 122.443 791.543 157.108C791.772 191.786 782.556 232.566 764.825 276.854L763.727 279.598H766.682H836.116H838.116V277.598V-0.206848V-2.20685H836.116H2.79297H0.792969V-0.206848V833.207V835.207H2.79297H558.379H560.379V833.207V582.049V572.105Z" stroke="white" stroke-width="4" stroke-miterlimit="10"/>
<path d="M1028.62 260.928L1028.57 265.763L1032.02 262.379C1125.83 170.458 1226.25 103.541 1313.1 69.6059C1356.53 52.6371 1396.48 43.9514 1430.47 44.4449C1464.44 44.9382 1492.33 54.5941 1511.89 74.1639C1531.76 94.0336 1541.42 122.467 1541.65 157.139C1541.88 191.823 1532.66 232.604 1514.95 276.89C1479.52 365.454 1410.25 467.657 1315.49 562.423C1220.7 657.217 1118.49 726.493 1029.93 761.913C985.643 779.624 944.867 788.833 910.192 788.6C875.529 788.366 847.107 778.706 827.252 758.837L827.251 758.836C807.396 738.98 797.74 710.557 797.512 675.892C797.284 641.214 806.499 600.434 824.23 556.146L825.329 553.402H822.374H752.939H750.939V555.402V833.207V835.207H752.939H1586.32H1588.32V833.207V-0.206848V-2.20685H1586.32H1030.73H1028.73V-0.206848V250.939V250.951L1028.62 260.928Z" stroke="white" stroke-width="4" stroke-miterlimit="10"/>
<g style="mix-blend-mode:color-dodge">
<path d="M624.908 450.258H626.908V448.258V435.186V433.186H624.908H549.262V380.262H613.401H615.401V378.262V365.19V363.19H613.401H533.186H531.186V365.19V448.258V450.258H533.186H624.908ZM642.509 513.334L642.498 513.339C635.252 516.989 624.724 518.879 610.608 518.879C596.505 518.879 585.969 516.937 578.713 513.337C575.096 511.514 572.523 509.402 570.855 507.044C569.202 504.706 568.367 502.029 568.367 498.925C568.367 495.727 569.209 492.993 570.859 490.64C572.524 488.268 575.089 486.174 578.697 484.41C585.954 480.861 596.495 478.971 610.608 478.971C624.731 478.971 635.262 480.808 642.509 484.405C649.641 487.945 652.849 492.865 652.849 498.925C652.849 502.03 652.013 504.722 650.359 507.067C648.691 509.431 646.12 511.541 642.509 513.334ZM667.753 464.503H669.753V462.503V349.493V347.493H667.753H640.605H638.605V349.493V362.565V364.565H640.605H651.676V395.535H602.173H600.173V397.535V410.607V412.607H602.173H651.676V462.503V464.503H653.676H667.753ZM566.681 471.568C556.11 477.887 550.737 487.068 550.737 498.925C550.737 510.68 556.118 519.798 566.674 526.167C577.118 532.469 591.839 535.504 610.664 535.504C629.489 535.504 644.209 532.469 654.653 526.167C665.205 519.8 670.591 510.796 670.591 498.925C670.591 487.068 665.217 477.887 654.646 471.568C644.202 465.324 629.483 462.346 610.664 462.346C591.844 462.346 577.125 465.324 566.681 471.568Z" stroke="white" stroke-width="4" stroke-miterlimit="10"/>
<path d="M862.202 509.137H864.202V507.137V494.065V492.065H862.202H843.086V367.369V365.369H841.086H726.852H724.852V367.369V380.441V382.441H726.852H825.01V492.065H706.352H704.352V494.065V507.137V509.137H706.352H862.202Z" stroke="white" stroke-width="4" stroke-miterlimit="10"/>
<path d="M895.328 487.239H1014.21V529.147V531.147H1016.21H1030.29H1032.29V529.147V350.554V348.554H1030.29H1003.14H1001.14V350.554V363.626V365.626H1003.14H1014.21V470.223H911.424L911.777 432.773H976.158H978.158V430.773V366.419V364.419H976.158H895.719H893.719V366.419V379.491V381.491H895.719H960.081V415.701H895.719H893.719V417.701V425.124V425.131L893.328 485.226L893.315 487.239H895.328Z" stroke="white" stroke-width="4" stroke-miterlimit="10"/>
</g>
</g>
<defs>
<clipPath id="clip0_365_52">
<rect width="1589" height="839" fill="white" transform="translate(0 -3)"/>
</clipPath>
</defs>
</svg>
