<?xml version="1.0" encoding="UTF-8"?><svg id="_레이어_1" xmlns="http://www.w3.org/2000/svg" viewBox="0 0 1594 718.15"><defs><style>.cls-1{fill:#fff;stroke-width:0px;}</style></defs><path class="cls-1" d="m673.78,276.75v123.26h-15.35v-56.59h-56.15v-14.25h56.15v-38.17h-14.26v-14.25h29.61m-59.22,17.1v14.26h-72.16v62.07h84.66v14.26h-100.01v-90.59h87.51m-3.07,108.13c20.32,0,35.93,3.26,46.83,9.76,10.89,6.51,16.34,15.83,16.34,27.97s-5.45,21.27-16.34,27.86c-10.89,6.58-26.51,9.87-46.83,9.87s-35.94-3.29-46.83-9.87c-10.9-6.58-16.34-15.87-16.34-27.86s5.44-21.46,16.34-27.97c10.88-6.5,26.5-9.76,46.83-9.76m0,61.64c15.49,0,27.42-2.09,35.75-6.25,8.33-4.17,12.5-10.05,12.5-17.66s-4.17-13.67-12.5-17.77c-8.33-4.09-20.26-6.14-35.75-6.14s-27.42,2.05-35.75,6.14c-8.34,4.1-12.5,10.02-12.5,17.77s4.16,13.49,12.5,17.66c8.33,4.17,20.25,6.25,35.75,6.25m66.29-190.87h-37.61v22.25h14.26v30.17h-56.15v22.25h56.15v56.59h23.35v-131.26h0Zm-59.22,17.1h-95.51v98.59h108.01v-22.26h-84.66v-54.07h72.16v-22.26h0Zm-7.07,108.13c-20.96,0-37.41,3.47-48.88,10.33-12.13,7.24-18.29,17.81-18.29,31.4s6.15,23.96,18.27,31.28c11.46,6.93,27.91,10.44,48.89,10.44s37.42-3.51,48.89-10.44c12.12-7.33,18.27-17.85,18.27-31.28s-6.15-24.15-18.29-31.4c-11.48-6.85-27.92-10.33-48.88-10.33h0Zm0,61.64c-14.8,0-26.22-1.96-33.96-5.83-6.93-3.46-10.29-8.06-10.29-14.08s3.26-10.74,10.27-14.18c7.75-3.8,19.18-5.73,33.99-5.73s26.24,1.93,33.99,5.73c7,3.44,10.27,7.95,10.27,14.18s-3.37,10.61-10.29,14.08c-7.74,3.87-19.16,5.83-33.96,5.83h0Z"/><path class="cls-1" d="m862.84,296.26v138.18h23.03v14.25h-169.99v-14.25h131.6v-123.92h-109.23v-14.26h124.58m4-4h-132.58v22.26h109.23v115.92h-131.6v22.25h177.99v-22.25h-23.03v-138.18h0Z"/><path class="cls-1" d="m1069.22,277.84v194.77h-15.35v-47.82h-131.82l.44-65.58v-8.12h72.38v-41.67h-72.38v-14.26h87.74v70.19h-72.39l-.44,45.18h116.47v-118.44h-14.26v-14.25h29.61m4-4h-37.61v22.25h14.26v110.44h-108.43l.36-37.18h72.42v-78.19h-95.74v22.26h72.38v33.67h-72.38v12.12l-.44,65.55-.03,4.03h131.85v47.82h23.35v-202.77h0Z"/><path class="cls-1" d="m714.15,4v236.72h-59.18c30.29-75.73,31.69-139.9-2.97-174.56-17.54-17.54-42.64-25.85-72.97-25.85-89.53,0-224.65,72.4-345.49,193.23C71.76,395.31-3.18,582.66,66.15,652c17.54,17.54,42.62,25.84,72.93,25.84,87.76,0,219.34-69.6,338.35-186.2v222.51H4V4h710.15m4-4H0v718.15h481.43v-236.03l-6.8,6.66c-114.74,112.42-246.45,185.05-335.55,185.05-30.15,0-53.74-8.3-70.1-24.67-16.18-16.18-24.48-39.42-24.67-69.08-.19-29.18,7.41-63.22,22.59-101.17,31.42-78.54,91.6-164.69,169.47-242.55,58.19-58.19,121.68-107.04,183.59-141.26,60.13-33.24,115.14-50.8,159.07-50.8,30.17,0,53.77,8.3,70.14,24.68,16.18,16.18,24.48,39.42,24.67,69.08.19,29.18-7.41,63.22-22.59,101.17l-2.19,5.49h69.09V0h0Z"/><path class="cls-1" d="m1590,4v710.15h-710.15v-236.72h59.18c-30.29,75.73-31.69,139.9,2.97,174.56,17.54,17.54,42.64,25.85,72.97,25.85,89.53,0,224.65-72.4,345.49-193.23,161.78-161.78,236.72-349.13,167.38-418.46-17.54-17.54-42.62-25.84-72.93-25.84-87.76,0-219.34,69.6-338.35,186.2V4h473.43m4-4h-481.43v236.03l6.8-6.66c114.74-112.42,246.45-185.05,335.55-185.05,30.15,0,53.74,8.3,70.1,24.67,16.18,16.18,24.48,39.42,24.67,69.08.19,29.18-7.41,63.22-22.59,101.17-31.42,78.54-91.6,164.69-169.47,242.55-58.19,58.19-121.68,107.04-183.59,141.26-60.13,33.24-115.14,50.8-159.07,50.8-30.17,0-53.77-8.3-70.14-24.68-16.18-16.18-24.48-39.42-24.67-69.08-.19-29.18,7.41-63.22,22.59-101.17l2.19-5.49h-69.09v244.72h718.15V0h0Z"/></svg>