<?xml version="1.0" encoding="UTF-8"?><svg id="_레이어_1" xmlns="http://www.w3.org/2000/svg" xmlns:xlink="http://www.w3.org/1999/xlink" viewBox="0 0 333 333"><defs><style>.cls-1,.cls-2{stroke-width:0px;}.cls-1,.cls-3{fill:none;}.cls-2{fill:#fff;}.cls-4{clip-path:url(#clippath);}.cls-3{stroke:#fff;stroke-width:2px;}</style><clipPath id="clippath"><rect class="cls-1" x="0" y="0" width="333" height="333"/></clipPath></defs><path class="cls-3" d="m166.5,0c0,91.96,74.54,166.5,166.5,166.5"/><path class="cls-3" d="m333,166.5H0"/><path class="cls-3" d="m333,166.5c-91.96,0-166.5,74.54-166.5,166.5"/><path class="cls-2" d="m333,155c-6.63,0-12,5.37-12,12s5.37,12,12,12v-24Z"/><g class="cls-4"><path class="cls-3" d="m166.5,0c0,91.96,74.54,166.5,166.5,166.5"/><path class="cls-3" d="m333,166.5H0"/><path class="cls-3" d="m333,166.5c-91.96,0-166.5,74.54-166.5,166.5"/><path class="cls-2" d="m265.47,296.77h-12.06v-13.93h12.06v5.51h4.75v-5.44h-2.45v-2.34h4.86v18.68h-2.41v-8.68h-4.75v6.19Zm13.14,2.48h-2.41v-18.68h2.41v18.68Zm-22.68-14.26v9.43h7.02v-9.43h-7.02Zm2.05,27.22v-11.38h20.63v11.38h-20.63Zm2.41-9.14v6.91h15.8v-6.91h-15.8Zm49.77,9.07h-2.52v-17.82h-7.81v8.82h-13.75v-19.33h2.52v8.17h8.71v-8.17h2.52v8.17h7.81v-9.65h-2.34v-2.16h4.86v31.97Zm-21.56-17.82v6.48h8.71v-6.48h-8.71Z"/><circle class="cls-2" cx="333" cy="167" r="12"/></g></svg>