<?xml version="1.0" encoding="UTF-8"?><svg id="_레이어_1" xmlns="http://www.w3.org/2000/svg" viewBox="0 0 333 333"><defs><style>.cls-1{fill:#fff;stroke-width:0px;}.cls-2{fill:none;stroke:#fff;stroke-width:2px;}</style></defs><path class="cls-2" d="m166.5,0c0,91.96,74.54,166.5,166.5,166.5"/><path class="cls-2" d="m333,166.5H0"/><path class="cls-2" d="m333,166.5c-91.96,0-166.5,74.54-166.5,166.5"/><path class="cls-1" d="m255.25,298.78l-1.26-1.98,11.09-7.63v-6.48h2.52v6.48l11.09,7.63-1.26,1.98-11.09-7.63-11.09,7.63Zm25.81,9.76h-29.34v-2.34h13.36v-7.85h2.52v7.85h13.46v2.34Zm20.5-25.52h-2.34v-2.34h4.86v12.31h4.64v-12.85h2.52v31.93h-2.52v-16.74h-4.64v16.74h-2.52v-29.05Zm-3.85,3.89c-.05,1.73-.3,3.44-.76,5.15-.46,1.7-1.2,3.4-2.23,5.08-1.08,1.75-2.44,3.37-4.07,4.86-1.63,1.46-3.34,2.75-5.11,3.85l-1.33-2.12c1.63-1.06,3.17-2.22,4.61-3.49,1.46-1.3,2.71-2.77,3.74-4.43.91-1.44,1.56-2.89,1.94-4.36.41-1.49.64-3,.68-4.54h-9.79v-2.34h12.31v2.34Z"/><path class="cls-1" d="m333,155c-6.63,0-12,5.37-12,12s5.37,12,12,12v-24Z"/></svg>