<?xml version="1.0" encoding="UTF-8"?><svg id="_레이어_1" xmlns="http://www.w3.org/2000/svg" xmlns:xlink="http://www.w3.org/1999/xlink" viewBox="0 0 333 333"><defs><style>.cls-1,.cls-2{stroke-width:0px;}.cls-1,.cls-3{fill:none;}.cls-2{fill:#fff;}.cls-4{clip-path:url(#clippath);}.cls-3{stroke:#fff;stroke-width:2px;}</style><clipPath id="clippath"><rect class="cls-1" y=".5" width="333" height="333"/></clipPath></defs><g class="cls-4"><path class="cls-3" d="m166.5.5c0,91.96,74.54,166.5,166.5,166.5"/><path class="cls-3" d="m333,167H0"/><path class="cls-3" d="m333,167c-91.96,0-166.5,74.54-166.5,166.5"/><path class="cls-2" d="m262.99,287.12h-9.9v-2.34h12.42c.14,3.26-.32,6.29-1.4,9.07h5.47v-11.02h-2.34v-2.34h4.86v32.08h-2.52v-16.38h-6.55l-.32.58c-.65,1.1-1.5,2.26-2.56,3.46-1.03,1.18-2.15,2.27-3.35,3.28-1.18,1.01-2.33,1.82-3.46,2.45l-1.37-2.09c1.06-.62,2.14-1.39,3.24-2.3,1.1-.94,2.12-1.92,3.06-2.95.94-1.06,1.68-2.06,2.23-3.02,1.46-2.52,2.29-5.34,2.48-8.46Zm15.84,25.45h-2.52v-32.08h2.52v32.08Zm31.33-13.57h-2.52v-16.31h-2.34v-2.34h4.86v18.65Zm-24.88-8.71c0-1.39.36-2.65,1.08-3.78s1.68-2.03,2.88-2.7c1.22-.67,2.59-1.01,4.1-1.01,1.49.05,2.83.42,4.03,1.12,1.22.7,2.18,1.6,2.88,2.7.72,1.1,1.08,2.33,1.08,3.67s-.36,2.62-1.08,3.74c-.7,1.1-1.66,1.99-2.88,2.66-1.2.65-2.54.97-4.03.97s-2.88-.32-4.1-.97c-1.2-.67-2.16-1.56-2.88-2.66-.72-1.13-1.08-2.38-1.08-3.74Zm2.52,0c0,.94.24,1.79.72,2.56.5.77,1.18,1.38,2.02,1.84.84.43,1.78.65,2.81.65s1.96-.22,2.77-.65c.82-.46,1.46-1.07,1.94-1.84.5-.77.76-1.62.76-2.56s-.25-1.82-.76-2.59c-.48-.79-1.13-1.42-1.94-1.87-.82-.46-1.74-.68-2.77-.68s-1.97.23-2.81.68-1.51,1.08-2.02,1.87c-.48.77-.72,1.63-.72,2.59Zm22.46,22.39h-20.05v-11.59h20.05v11.59Zm-17.53-9.25v6.91h15.01v-6.91h-15.01Z"/><circle class="cls-2" cx="333" cy="167.5" r="12"/></g></svg>