<?xml version="1.0" encoding="UTF-8"?><svg id="_레이어_1" xmlns="http://www.w3.org/2000/svg" viewBox="0 0 1597 1597"><defs><style>.cls-1{fill:#fff;stroke-width:0px;}</style></defs><path class="cls-1" d="m1593,4v1589H4v-529.67h132.42c-67.78,169.44-70.91,313.03,6.65,390.6,39.26,39.26,95.4,57.84,163.28,57.84,200.34,0,502.67-161.99,773.05-432.37,361.98-361.98,529.67-781.19,374.53-936.33-39.24-39.24-95.37-57.82-163.19-57.82-196.38,0-490.79,155.74-757.07,416.63V4h1059.33m4-4H529.67v511.4l6.8-6.66c128.69-126.09,268.35-231.72,403.86-305.49,132.19-71.96,253.36-110,350.41-110,68.82,0,122.78,19.06,160.36,56.64,37.15,37.15,56.21,90.32,56.66,158.04.43,65.94-16.69,142.73-50.89,228.24-70.54,176.36-205.6,369.69-380.3,544.39-130.54,130.54-272.97,240.12-411.9,316.91-135.28,74.77-259.19,114.29-358.32,114.29-68.86,0-122.85-19.07-160.45-56.67-37.15-37.15-56.21-90.32-56.66-158.04-.43-65.94,16.69-142.73,50.89-228.24l2.19-5.49H0v537.67h1597V0h0Z"/></svg>