<?xml version="1.0" encoding="UTF-8"?><svg xmlns="http://www.w3.org/2000/svg" viewBox="0 0 290 297.93"><defs><style>.cls-1,.cls-2,.cls-3{fill:#00a1e9;}.cls-1,.cls-4{stroke-width:0px;}.cls-2,.cls-3{font-family:Orbit-Regular, Orbit;font-size:150px;}.cls-4{fill:#fff;}.cls-3{stroke:#fff;stroke-linecap:round;stroke-miterlimit:10;stroke-width:20px;}</style></defs><g id="_레이어_2"><text class="cls-3" transform="translate(10 246.23)"><tspan x="0" y="0">Top</tspan></text><polygon class="cls-1" points="145 37.59 80.24 102.35 64.62 86.74 145 6.36 225.37 86.74 209.76 102.35 145 37.59"/><path class="cls-4" d="m145,12.73l9.25,9.25,64.76,64.76-9.25,9.25L145,31.23l-64.76,64.76-9.25-9.25L135.75,21.98l9.25-9.25m0-12.73l-6.36,6.36-9.25,9.25-64.76,64.76-6.36,6.36,6.36,6.36,9.25,9.25,6.36,6.36,6.36-6.36,58.4-58.4,58.4,58.4,6.36,6.36,6.36-6.36,9.25-9.25,6.36-6.36-6.36-6.36L160.61,15.62l-9.25-9.25-6.36-6.36h0Z"/></g><g id="_레이어_1"><text class="cls-2" transform="translate(10 246.23)"><tspan x="0" y="0">Top</tspan></text></g></svg>